<svg xmlns="http://www.w3.org/2000/svg" viewBox="0 0 314.87 145.41"><defs><style>.cls-1,.cls-10,.cls-11,.cls-12,.cls-13,.cls-14,.cls-15,.cls-2,.cls-4,.cls-5,.cls-6,.cls-7,.cls-9{fill:none;}.cls-1,.cls-10,.cls-11,.cls-12,.cls-13,.cls-14,.cls-2,.cls-4,.cls-5,.cls-9{stroke:#4e4d4e;}.cls-1,.cls-10,.cls-12,.cls-13,.cls-14,.cls-2,.cls-4,.cls-5,.cls-6,.cls-7{stroke-miterlimit:10;}.cls-1,.cls-11,.cls-2{stroke-width:1.34px;}.cls-2{stroke-linecap:round;}.cls-3{opacity:0.5;}.cls-4{stroke-width:1.25px;}.cls-5,.cls-7{stroke-width:1.31px;}.cls-15,.cls-6,.cls-7{stroke:#4d4d4d;}.cls-6{stroke-width:1.17px;}.cls-8{fill:#4e4d4e;}.cls-11,.cls-15,.cls-9{stroke-linejoin:round;}.cls-10,.cls-9{stroke-width:1.36px;}.cls-12{stroke-width:2px;}.cls-13{stroke-width:1.37px;}.cls-14{stroke-width:1.41px;}.cls-15{stroke-width:1.83px;}.cls-16{fill:#4d4d4d;}</style></defs><title>Asset 100</title><g id="Layer_2" data-name="Layer 2"><g id="Layer_1-2" data-name="Layer 1"><g id="Notifications_Glyph_v6" data-name="Notifications Glyph v6"><g id="Mail_Glyph_v3" data-name="Mail Glyph v3"><path class="cls-1" d="M162,37.17s-6.56,6.17-7.31,6.75a1.88,1.88,0,0,1-2.49,0l-7.4-6.84"/><path class="cls-2" d="M144.78,37.93s0,9.86,0,11.28,1.08,1.52,1.08,1.52h15.06c1.08,0,1-1.52,1-1.52S162,38,162,38"/><path class="cls-1" d="M152.76,42.56"/><g class="cls-3"><path class="cls-1" d="M144.79,49.73"/></g><path class="cls-1" d="M146.12,50.63"/><path class="cls-1" d="M145.07,37.72V35.26a.4.4,0,0,1,.44-.34h15.32a.4.4,0,0,1,.44.34v2.48"/></g><line class="cls-1" x1="148.5" y1="38.58" x2="157.78" y2="38.58"/><line class="cls-1" x1="148.5" y1="36.83" x2="151.65" y2="36.83"/></g><g id="Like_Glyph_v1.2" data-name="Like Glyph v1.2"><path class="cls-1" d="M45.34,18.57a.59.59,0,0,1-.23-.05c-4.47-2-9.24-6.08-8.66-11.51a5.79,5.79,0,0,1,.79-2.47,3.89,3.89,0,0,1,2.06-1.66,5.29,5.29,0,0,1,6.05,1.87,5.29,5.29,0,0,1,6.05-1.87,3.89,3.89,0,0,1,2.06,1.66A5.79,5.79,0,0,1,54.27,7c.59,5.43-4.2,9.46-8.66,11.51A.59.59,0,0,1,45.34,18.57Z"/></g><g id="Mail_Glyph_v3-2" data-name="Mail Glyph v3"><path class="cls-1" d="M123.61,7.28s-5.56,4.2-6.19,4.59a1.88,1.88,0,0,1-2.11,0l-6.14-4.59"/><path class="cls-1" d="M115.52,11.38"/><g class="cls-3"><path class="cls-1" d="M109.22,16.43"/></g><path class="cls-1" d="M110.27,17.07"/></g><g id="Notifications_Glyph_v3" data-name="Notifications Glyph v3"><circle class="cls-1" cx="116.4" cy="10.58" r="8.37"/></g><path class="cls-1" d="M116.7,2.35"/><g id="Notifications_Glyph_v3-2" data-name="Notifications Glyph v3"><circle class="cls-1" cx="153.38" cy="10.58" r="8.53"/></g><path class="cls-1" d="M153.93,2"/><line class="cls-1" x1="148.77" y1="8.38" x2="152.34" y2="8.38"/><line class="cls-1" x1="148.77" y1="11.72" x2="157.98" y2="11.72"/><g id="Settings_v1" data-name="Settings v1"><circle class="cls-1" cx="190.59" cy="10.66" r="3.22"/><polyline class="cls-1" points="188.56 5.2 188.56 2.11 192.61 2.11 192.61 5.18"/><polyline class="cls-1" points="192.61 15.97 192.61 19.05 188.56 19.05 188.56 16.01"/><polyline class="cls-1" points="185.07 12.69 182.06 12.69 182.06 8.63 185.09 8.63"/><polyline class="cls-1" points="195.84 8.63 199 8.63 199 12.69 195.9 12.69"/><polyline class="cls-1" points="192.89 5.41 195.06 3.23 197.93 6.1 195.74 8.29"/><polyline class="cls-1" points="188.16 15.92 186.06 18.03 183.19 15.16 185.36 12.99"/><polyline class="cls-1" points="185.28 8.19 183.19 6.1 186.06 3.23 188.16 5.33"/><polyline class="cls-1" points="195.75 12.88 198.01 15.14 195.15 18 192.83 15.69"/></g><g id="Mail_Glyph_v3-3" data-name="Mail Glyph v3"><path class="cls-1" d="M272.59,4.5s-6.45,6.2-7.19,6.79a1.82,1.82,0,0,1-2.45,0L255.82,4.5"/><path class="cls-1" d="M263.19,10.57"/><g class="cls-3"><path class="cls-1" d="M255.86,18"/></g><path class="cls-1" d="M257.09,19"/><path class="cls-1" d="M255.68,4.42s0-1.57,1.1-1.57h14.8s1-.1,1,1.43V16.46s.08,1.62-1,1.62h-14.8s-1.06-.1-1.06-1.62S255.68,4.42,255.68,4.42Z"/></g><g id="Notifications_Glyph_v4" data-name="Notifications Glyph v4"><path class="cls-1" d="M50.38,36.29a5.12,5.12,0,0,0-3.72-1.13c-3,.16-6,2.24-7.79,4.6a6.78,6.78,0,0,0-1.31,6,6.5,6.5,0,0,0,3.8,3.86,14.46,14.46,0,0,0,5.38.86c1.75,0,7.73-.27,6.52-3.5-.42-1.12-1.94-1-3-1.54-3.45-1.62,0-4.76.61-6.73A2.32,2.32,0,0,0,50.38,36.29Z"/><ellipse class="cls-1" cx="42.79" cy="45.17" rx="1.74" ry="1.77"/></g><g id="Notifications_Glyph_v3-3" data-name="Notifications Glyph v3"><g id="_Group_" data-name="&lt;Group&gt;"><path class="cls-1" d="M303.78,16c-.46,1.18-1.81,2.58-2.76,2.58s-2.41-1.43-2.83-2.61"/><path class="cls-1" d="M301,2.57a7.85,7.85,0,0,0-2.52.27,4,4,0,0,0-2.12,1.38,5.17,5.17,0,0,0-.82,3.28c0,1.15.26,2.29.26,3.45a7.28,7.28,0,0,1-1.6,2.46,1.35,1.35,0,0,0,0,1.77,2.15,2.15,0,0,0,1.21.55,22.53,22.53,0,0,0,2.82.26c1.72.08,3.83.1,5.6,0a14.49,14.49,0,0,0,3.23-.38,1.91,1.91,0,0,0,.91-.55,1.32,1.32,0,0,0-.22-1.81c-.24-.18-1.56-1.4-1.53-2.18.05-1.17.31-2.71.3-3.88a4.91,4.91,0,0,0-1-3.25,4,4,0,0,0-2.07-1.15A10.62,10.62,0,0,0,301,2.56"/></g></g><g id="Notifications_Glyph_v2" data-name="Notifications Glyph v2"><path id="Front" class="cls-4" d="M4.26,48C6,48,7.76,49.13,9.43,49.58c3.39.92,7.81.28,10-2.78a7.27,7.27,0,0,0-6-11.12,8.26,8.26,0,0,0-4.87,1.25,8.5,8.5,0,0,0-2.77,3.9c-.5,1.2-.82,2.49-1.27,3.72a11.1,11.1,0,0,1-2.12,3.3Z"/><line class="cls-4" x1="8.63" y1="41.81" x2="16.89" y2="41.81"/><line class="cls-4" x1="8.63" y1="44.84" x2="16.89" y2="44.84"/></g><g id="Share_Glyph_v4.1" data-name="Share Glyph v4.1"><circle class="cls-1" cx="77.7" cy="40.5" r="5.55"/><circle class="cls-1" cx="82.92" cy="45.15" r="5.55"/></g><g id="Share_Glyph_v1" data-name="Share Glyph v1"><circle class="cls-1" cx="223.54" cy="6.29" r="4.01"/><path class="cls-1" d="M221.46,9.07"/><circle class="cls-1" cx="230.87" cy="9.91" r="3.13"/><path class="cls-1" d="M232.28,12.7"/><path class="cls-1" d="M229.5,18.36H235a8.77,8.77,0,0,0-.17-3.39,4.07,4.07,0,0,0-2-2.57"/><path class="cls-1" d="M225.54,9.27a6.59,6.59,0,0,1,3.24,4.13,14,14,0,0,1,.27,5.48h-11.2a14,14,0,0,1,.27-5.48,6.6,6.6,0,0,1,3.33-4.17"/><path class="cls-1" d="M229.48,12.71"/></g><g id="Show_v2" data-name="Show v2"><path class="cls-5" d="M235.1,43c-9.22,12.73-17.48,0-17.48,0v-.34s8.29-12.73,17.5,0Z"/><circle class="cls-1" cx="226.21" cy="42.82" r="3.18"/></g><g id="Hide_v2" data-name="Hide v2"><path class="cls-1" d="M266.59,41a3.19,3.19,0,0,1-4.19,4.19"/><path class="cls-1" d="M268.32,38.37a16.16,16.16,0,0,1,4.44,4.38l0,.34c-5.14,7.1-10,6.28-13.32,4.17"/><path class="cls-5" d="M257.72,45.84a12.85,12.85,0,0,1-2.3-2.74v-.34s4.79-7.4,11.18-5.28"/><path class="cls-1" d="M262,46"/><line class="cls-1" x1="269.85" y1="36.59" x2="257.39" y2="49.05"/></g><g id="Mail_Glyph_v3-4" data-name="Mail Glyph v3"><path class="cls-5" d="M108.18,75.94s6.33-4.78,7-5.23a2.14,2.14,0,0,1,2.4,0l7,5.23"/><path class="cls-5" d="M117.39,71.27"/></g><g id="Close_v1" data-name="Close v1"><path class="cls-5" d="M72.09,70.21s6.33,4.78,7,5.23a2.14,2.14,0,0,0,2.4,0l7-5.23"/><path class="cls-5" d="M81.3,74.89"/></g><g id="Hide_v1" data-name="Hide v1"><path class="cls-5" d="M145.41,80.86s6.21-6.1,6.92-6.67a1.72,1.72,0,0,1,2.36,0l6.86,6.67"/><path class="cls-5" d="M154.45,74.9"/></g><g id="Show_v1" data-name="Show v1"><path class="cls-5" d="M161.34,65.3s-6.21,6.1-6.92,6.67a1.72,1.72,0,0,1-2.36,0L145.2,65.3"/><path class="cls-5" d="M152.3,71.26"/></g><g id="Report_Content_Glyph_v1" data-name="Report Content Glyph v1"><path class="cls-1" d="M183.65,51.45l0-15.31-.27-.79s4.76-1.55,7.85.83v2.09s4.1,1.65,6.51.14l0,7.67,0,.54c-2.42,1.13-6.38-.14-6.38-.14V44.84c-3.09-1.85-7.88-.65-7.88-.65"/></g><g id="Notifications_Glyph_v9" data-name="Notifications Glyph v9"><g id="Notifications_Glyph_v3-4" data-name="Notifications Glyph v3"><circle class="cls-1" cx="153.38" cy="103.97" r="8.31"/></g><circle class="cls-1" cx="153.38" cy="100.27" r="1.65"/><rect class="cls-1" x="151.67" y="103.76" width="3.42" height="5.95" rx="0.68" ry="0.68"/></g><g id="Notifications_Glyph_v9-2" data-name="Notifications Glyph v9"><g id="Notifications_Glyph_v3-5" data-name="Notifications Glyph v3"><circle class="cls-1" cx="301.02" cy="42.82" r="8.15"/></g></g><circle class="cls-6" cx="300.84" cy="46.81" r="1.15"/><path class="cls-7" d="M301.59,44.2c3-6.6-.22-6-.22-6h-.7s-3.18-.59-.22,6Z"/><path class="cls-8" d="M15.42,2.63l3.46,3.06-3.51,2.8V6.86l-4.54,0-1.31,0a3.9,3.9,0,0,0-2.27.47,2.72,2.72,0,0,0-.49,1.92L5.08,10.45a4.81,4.81,0,0,1-.51-2.67A4.44,4.44,0,0,1,6.19,5a3.69,3.69,0,0,1,1.9-.72l7.32.07,0-1.75M14.25,0l0,2.62v.56L8.1,3.12H7.93a4.86,4.86,0,0,0-2.49,1A5.62,5.62,0,0,0,3.4,7.6,5.87,5.87,0,0,0,4,11l.62,1.34,1.18-.88,1.68-1.26L8,9.8V9.21a3.94,3.94,0,0,1,.12-1A3.85,3.85,0,0,1,9.53,8h1.31l3.34,0v.43l0,2.51,2-1.56,3.51-2.8,1.11-.89-1.07-.94L16.21,1.73,14.25,0Z"/><path class="cls-8" d="M17.11,10.7a4.81,4.81,0,0,1,.51,2.67A4.44,4.44,0,0,1,16,16.12a3.69,3.69,0,0,1-1.9.72l-7.32-.07,0,1.75L3.31,15.47l3.51-2.8v1.62l4.54,0,1.31,0a3.9,3.9,0,0,0,2.27-.47A2.72,2.72,0,0,0,15.43,12l1.68-1.26m.47-1.84-1.18.88L14.71,11l-.47.35v.59a4,4,0,0,1-.12,1,3.87,3.87,0,0,1-1.45.17H11.35L8,13.11v-.43l0-2.51-2,1.56-3.51,2.8-1.11.89,1.07.94L6,19.42l2,1.73,0-2.62V18L14.1,18h.17a4.86,4.86,0,0,0,2.49-1,5.62,5.62,0,0,0,2.05-3.5,5.87,5.87,0,0,0-.6-3.36l-.62-1.34Z"/><path class="cls-9" d="M3.19,81.1s2-8.69,2.54-9.28,4.7-2.33,4.7-2.33l4.36,4.36S13.1,78,12.47,78.53s-9.29,2.54-9.29,2.54Z"/><rect class="cls-9" x="12.61" y="66.65" width="6.01" height="3.59" transform="translate(52.98 9.01) rotate(45)"/><g id="Notifications_Glyph_v9-3" data-name="Notifications Glyph v9"><g id="Notifications_Glyph_v3-6" data-name="Notifications Glyph v3"><circle class="cls-1" cx="114.86" cy="101.93" r="7.1"/></g><rect class="cls-1" x="120.99" y="107.97" width="2.92" height="5.08" rx="0.58" ry="0.58" transform="translate(287.18 102.07) rotate(135)"/></g><line class="cls-1" x1="110.6" y1="100.39" x2="113.9" y2="100.39"/><line class="cls-1" x1="110.6" y1="103.48" x2="119.11" y2="103.48"/><circle class="cls-10" cx="294.17" cy="73.08" r="2.12"/><circle class="cls-10" cx="301.28" cy="73.08" r="2.12"/><circle class="cls-10" cx="307.91" cy="73.08" r="2.08"/><g id="Messages_Glyph_v1" data-name="Messages Glyph v1"><path class="cls-1" d="M76.42,3.08c2.85-.5,7.09.27,8.45,3.2a5.06,5.06,0,0,1,.29,3.18,6.32,6.32,0,0,1-2.52,3.74,6.47,6.47,0,0,1-2.12,1c-1.31.34-2.49,0-3.74.69L72.73,17l.64-3.21a1.11,1.11,0,0,0,0-.44,1.06,1.06,0,0,0-.33-.5,12.66,12.66,0,0,1-1.48-1.57,5,5,0,0,1,.61-6A7.29,7.29,0,0,1,76.42,3.08Z"/><path class="cls-1" d="M86.41,8.2a4.52,4.52,0,0,1,3.28,3.59c.28,1.49-.24,3.53-1.86,4l.53,1.91L85.74,16.6a6.72,6.72,0,0,0-1.36,0,6.09,6.09,0,0,1-2.88-1.07"/></g><g id="Edit_Poster_Glyph_v5" data-name="Edit Poster Glyph v5"><g id="Close_v1-2" data-name="Close v1"><path class="cls-1" d="M224.82,71.52"/></g><path class="cls-1" d="M224.91,76.77l-1.6,1.6-3.51,1.41-.1-.1s1.33-3.54,1.36-3.56l1.57-1.57"/><path class="cls-1" d="M227.85,69.32l2.4-2.4c.57-.57,1.33-.72,1.71-.34l.89.89c.38.38.23,1.14-.34,1.71l-2.38,2.38"/><path class="cls-1" d="M224.82,71.52"/><g id="Close_v1-3" data-name="Close v1"><path class="cls-1" d="M225.33,74.39"/></g><path class="cls-1" d="M225.68,77.4"/><g id="Close_v1-4" data-name="Close v1"><path class="cls-1" d="M224.82,71.52"/></g><path class="cls-1" d="M224.82,71.52"/><path class="cls-1" d="M227.77,76.69a3.07,3.07,0,0,0,.6,3.44,3.57,3.57,0,0,0,3.05,1l.12-.77-1.28-1.28s.12-1.31.17-1.52a.58.58,0,0,1,.15-.29h0a.58.58,0,0,1,.29-.15c.21,0,1.52-.17,1.52-.17l1.28,1.28.77-.12a3.57,3.57,0,0,0-1-3.05,3.07,3.07,0,0,0-3.44-.6l-5-5a3.07,3.07,0,0,0-.6-3.44,3.57,3.57,0,0,0-3.05-1l-.12.77,1.28,1.28s-.12,1.31-.17,1.52a.58.58,0,0,1-.15.29h0a.58.58,0,0,1-.29.15c-.21,0-1.52.17-1.52.17l-1.28-1.28-.77.12a3.57,3.57,0,0,0,1,3.05,3.07,3.07,0,0,0,3.44.6Z"/></g><g id="Edit_Poster_Glyph_v1" data-name="Edit Poster Glyph v1"><path class="cls-1" d="M188.74,74.17"/><g class="cls-3"><path class="cls-1" d="M183.26,82"/></g><path class="cls-1" d="M183.7,82"/><path class="cls-1" d="M196.26,73.23V80.4s.06,1.37-.83,1.37H182.88s-.9-.08-.9-1.37,0-10.21,0-10.21,0-1.33.93-1.33h5.87"/><path id="Notifications_Glyph_v5" data-name="Notifications Glyph v5" class="cls-1" d="M198,64.42c-11.7-.83-10.51,13.15-10.51,13.15a10,10,0,0,1,3.18-3.14,18.59,18.59,0,0,0,2.51-1.32c.34-.22-.71-2.12-.35-2.4s2.12,1.06,2.48.7-1.55-3.21-1.21-3.58,3.16,1.45,3.44,1.11C199.24,66.9,199.82,64.55,198,64.42Z"/></g><g id="Notifications_Glyph_v9-4" data-name="Notifications Glyph v9"><g id="Notifications_Glyph_v3-7" data-name="Notifications Glyph v3"><circle class="cls-1" cx="116.4" cy="42.82" r="8.09"/></g></g><ellipse class="cls-1" cx="116.4" cy="42.82" rx="2.11" ry="7.58"/><ellipse class="cls-1" cx="116.4" cy="42.82" rx="7.58" ry="2.89"/><path class="cls-1" d="M53.22,110.81c0-.43-.4-1-2.12-1.2a7.84,7.84,0,0,0-5.39,1.52H45a7.84,7.84,0,0,0-5.39-1.52c-1.81.23-2.08.66-2.12,1.26l0-13.07s-.88-.58,2.14-1A7.84,7.84,0,0,1,45,98.37h.68a7.84,7.84,0,0,1,5.39-1.52c3,.38,2.11,1,2.11,1v13.06"/><path class="cls-1" d="M37.48,110.84"/><line class="cls-1" x1="45.41" y1="98.81" x2="45.41" y2="110.74"/><g id="Notifications_Glyph_v3-8" data-name="Notifications Glyph v3"><ellipse class="cls-1" cx="190.53" cy="103.97" rx="8.16" ry="8.23"/></g><path class="cls-1" d="M191,101.72a2.29,2.29,0,0,1,1.82,1.85l1.49-3.38Z"/><path class="cls-1" d="M188.38,104.44l-1.48,3.27,3.28-1.47A2.29,2.29,0,0,1,188.38,104.44Z"/><path class="cls-1" d="M189.36,108.47"/><line class="cls-1" x1="190.53" y1="95.78" x2="190.53" y2="98.21"/><line class="cls-1" x1="190.53" y1="109.79" x2="190.53" y2="112.22"/><line class="cls-1" x1="184.9" y1="103.97" x2="182.48" y2="103.97"/><line class="cls-1" x1="198.64" y1="103.97" x2="196.23" y2="103.97"/><path class="cls-1" d="M226.24,109.57,221,112.13a.3.3,0,0,1-.43-.3l1-5.44a.27.27,0,0,0-.09-.25l-4.2-3.85a.28.28,0,0,1,.17-.48l5.8-.79a.3.3,0,0,0,.23-.15l2.59-4.95a.31.31,0,0,1,.54,0l2.59,4.95a.3.3,0,0,0,.23.15l5.8.79a.28.28,0,0,1,.17.48l-4.2,3.85a.27.27,0,0,0-.09.25l1,5.44a.3.3,0,0,1-.43.3l-5.19-2.57A.32.32,0,0,0,226.24,109.57Z"/><polygon class="cls-11" points="272.37 67.95 264.1 64.76 255.88 67.99 263.87 71.06 272.37 67.95"/><polygon class="cls-11" points="263.88 81.38 263.87 71.06 255.88 67.99 255.86 77.8 263.88 81.38"/><polygon class="cls-11" points="272.37 67.95 272.35 78.16 263.87 81.4 263.87 71.06 272.37 67.95"/><line class="cls-1" x1="108.86" y1="143.24" x2="123.34" y2="143.24"/><rect class="cls-1" x="120.18" y="127.44" width="3.27" height="12.88" rx="0.89" ry="0.89"/><rect class="cls-1" x="114.48" y="130.46" width="3.27" height="10.05" rx="0.89" ry="0.89"/><rect class="cls-1" x="108.78" y="133.08" width="3.27" height="7.42" rx="0.89" ry="0.89"/><ellipse class="cls-1" cx="75.29" cy="107.54" rx="3" ry="3.03"/><ellipse class="cls-1" cx="85.32" cy="107.54" rx="3" ry="3.03"/><line class="cls-1" x1="72.94" y1="105.46" x2="78.21" y2="97.12"/><line class="cls-1" x1="87.79" y1="105.7" x2="82.28" y2="97.06"/><line class="cls-1" x1="77.61" y1="105.34" x2="82.76" y2="105.34"/><g id="Notifications_Glyph_v3-9" data-name="Notifications Glyph v3"><ellipse class="cls-1" cx="264.12" cy="111.16" rx="4.11" ry="4.01"/></g><rect class="cls-1" x="259.92" y="94.77" width="8.36" height="8.62" rx="0.77" ry="0.77"/><path class="cls-1" d="M268.82,95.88h2c.26,0,.47.3.47.68v7.26c0,.37-.21.68-.47.68H266c-.26,0-.47-.3-.47-.68v-.11"/><path class="cls-1" d="M259.44,95.88h-2c-.26,0-.47.3-.47.68v7.26c0,.37.21.68.47.68h4.75c.26,0,.47-.3.47-.68v-.11"/><polyline class="cls-1" points="296.93 105.67 294.39 110.91 297.1 110.77 298.91 112.6 300.59 107.31"/><polyline class="cls-1" points="305.1 105.42 307.64 110.67 304.93 110.53 303.12 112.36 301.44 107.06"/><path class="cls-1" d="M301.12,95.51l2.4-.75a.29.29,0,0,1,.34.14L305,97.06a.28.28,0,0,0,.12.12l2.25,1.11a.27.27,0,0,1,.14.33l-.78,2.31a.26.26,0,0,0,0,.17l.78,2.31a.27.27,0,0,1-.14.33l-2.25,1.11a.28.28,0,0,0-.12.12l-1.15,2.17a.29.29,0,0,1-.34.14l-2.4-.75a.29.29,0,0,0-.18,0l-2.4.75a.29.29,0,0,1-.34-.14L297.06,105a.28.28,0,0,0-.12-.12l-2.25-1.11a.27.27,0,0,1-.14-.33l.78-2.31a.26.26,0,0,0,0-.17l-.78-2.31a.27.27,0,0,1,.14-.33l2.25-1.11a.28.28,0,0,0,.12-.12l1.15-2.17a.29.29,0,0,1,.34-.14l2.4.75A.29.29,0,0,0,301.12,95.51Z"/><polygon class="cls-1" points="301 101.81 299.81 102.44 300.04 101.11 299.08 100.17 300.41 99.97 301 98.76 301.59 99.97 302.92 100.17 301.96 101.11 302.19 102.44 301 101.81"/><g id="Messages_Glyph_v4" data-name="Messages Glyph v4"><path class="cls-5" d="M149.09,137.43"/><g class="cls-3"><path class="cls-5" d="M147.13,139.37"/></g><path class="cls-5" d="M147.46,139.61"/><path class="cls-5" d="M147.08,135.83s0-.41.29-.41h4s.26,0,.26.37V139s0,.42-.26.42h-4s-.28,0-.28-.42S147.08,135.83,147.08,135.83Z"/></g><line class="cls-12" x1="145.12" y1="132.05" x2="161.51" y2="132.05"/><rect class="cls-5" x="146.2" y="126.73" width="13.84" height="17.22" rx="0.91" ry="0.91" transform="translate(17.78 288.46) rotate(-90)"/><line class="cls-5" x1="155.38" y1="138.92" x2="159.71" y2="138.92"/><path class="cls-13" d="M14.8,101.35V99.68c-.24-.24.48-.62,1.13-.62a3.21,3.21,0,0,1,1.37.42s.54,7.58-.49,8.54a4.59,4.59,0,0,0-1.22,2.49H7.26l-.52-.31a10.56,10.56,0,0,0-5.5-6.27,1.75,1.75,0,0,1-.39-2,1.39,1.39,0,0,1,1.65-.62l2.9,1.4s.39.07.39-.45V92.69a1.86,1.86,0,0,1,1.57-1,1.71,1.71,0,0,1,1.43,1v8.71m3-.05V98.89a1.93,1.93,0,0,1,1.43-.7,3.5,3.5,0,0,1,1.57.7v2.46m-6-.85V98.38c.5-.24,1.17-.87,1.83-.87s1.17.87,1.17.87v3"/><g id="Edit_Poster_Glyph_v2" data-name="Edit Poster Glyph v2"><path class="cls-1" d="M302,143.14a1.45,1.45,0,0,1-1,.19H295.2s-1.29.06-1.29-.76V131.13s.08-.82,1.29-.82l9.61,0s1.25,0,1.25.85V133a3.45,3.45,0,0,1-.13.8"/></g><path class="cls-1" d="M304.08,141.06l-.1,0c-4.21-1.18-3.27-4.74-3.27-4.74a4.92,4.92,0,0,1,.58-1.55l.47.07a3.31,3.31,0,0,0,2.52,2.94l.36.11.13,0a14.44,14.44,0,0,0,4.1.44l0-2.23,4.9,4.13-5,3.8,0-2.23a21.43,21.43,0,0,1-4.54-.7Z"/><circle class="cls-14" cx="187" cy="141.51" r="1.89"/><circle class="cls-14" cx="195.51" cy="141.51" r="1.89"/><path class="cls-14" d="M186,139l10.41.08,3.06-6.78c.19-.65-.51-1-1.14-1H184.23Z"/><path class="cls-14" d="M178.49,127.29l3.9,0c.63,0,1,.05,1.14,1l.43,1.81.29,1.25"/><g id="Remove_Poster_Glyph_v2" data-name="Remove Poster Glyph v2"><g id="Notifications_Glyph_v9-5" data-name="Notifications Glyph v9"><g id="Notifications_Glyph_v3-10" data-name="Notifications Glyph v3"><circle class="cls-14" cx="45.36" cy="73.08" r="8.35"/></g></g><line class="cls-14" x1="40.15" y1="73.08" x2="50.58" y2="73.08"/></g><rect class="cls-1" x="259.16" y="131.84" width="9.92" height="13.78" rx="0.75" ry="0.75" transform="translate(125.39 402.84) rotate(-90)"/><path class="cls-1" d="M259.59,133.08c0-3.36,2-6.08,4.53-6.08s4.52,2.72,4.53,6.08"/><path class="cls-15" d="M44.62,7.23"/><path class="cls-15" d="M46.21,10.83"/><path class="cls-1" d="M46.13,140.56v-8.76a1.68,1.68,0,0,0-1.68-1.68h-.16a1.68,1.68,0,0,0-1.68,1.68v8.55a3.12,3.12,0,0,0,3.12,3.12H46a3.12,3.12,0,0,0,3.12-3.12v-8.66a4.49,4.49,0,0,0-4.49-4.49h-.43a4.49,4.49,0,0,0-4.49,4.49v8.87"/><path class="cls-16" d="M9,135h1.29l0,5.31,1.15,0-1.79,2.27-1.81-2.28H9V135m-1.3-1.31V139l-2.57,0,1.66,2.09,1.81,2.28,1,1.28,1-1.29,1.79-2.27L14,139.1l-2.49,0,0-4v-1.3H7.67Z"/><path class="cls-1" d="M6.91,136.54a3,3,0,0,1-1.77.58,2.86,2.86,0,0,1-2.91-2.8,2.81,2.81,0,0,1,2-2.67l.06-.17a5.69,5.69,0,0,1,5.7-4.73,5.72,5.72,0,0,1,5.57,4.14l.07.1a3.55,3.55,0,0,1,2.74,3.41,3.6,3.6,0,0,1-3.66,3.52,3.75,3.75,0,0,1-2.19-.7"/><g id="Messages_Glyph_v4-2" data-name="Messages Glyph v4"><path class="cls-1" d="M81.9,132.41"/><g class="cls-3"><path class="cls-1" d="M79.45,137.29"/></g><path class="cls-1" d="M80.21,137.56"/><path class="cls-1" d="M77.18,130.55s-.23-.79.29-1l7.36-2.36s.47-.2.72.55l1.94,6.06s.3.79-.23,1l-7.36,2.36s-.54.12-.78-.64Z"/></g><line class="cls-1" x1="79.26" y1="129.4" x2="81.71" y2="137.05"/><polyline class="cls-1" points="77.05 139.72 73.08 127.41 69.99 127.41"/><line class="cls-1" x1="87.75" y1="137.74" x2="79.42" y2="140.41"/><ellipse class="cls-1" cx="77.72" cy="141.19" rx="1.59" ry="1.58"/><line class="cls-1" x1="81.04" y1="130.83" x2="83.81" y2="129.94"/><path class="cls-1" d="M226.37,143.45l-5.12-4c-1.95-4-2-5.87-2-9.59s14.32-3.65,14.32,0,0,6.42-1.64,9.79Z"/></g></g></svg>