<svg xmlns="http://www.w3.org/2000/svg" viewBox="0 0 400.47 113.05"><defs><style>.cls-1,.cls-10,.cls-2,.cls-4,.cls-5,.cls-6,.cls-7,.cls-9{fill:none;}.cls-1,.cls-10,.cls-2,.cls-4,.cls-5,.cls-9{stroke:#4e4d4e;}.cls-1,.cls-10,.cls-2,.cls-4,.cls-5,.cls-6,.cls-7{stroke-miterlimit:10;}.cls-1,.cls-2{stroke-width:1.89px;}.cls-2{stroke-linecap:round;}.cls-3{opacity:0.5;}.cls-4{stroke-width:1.76px;}.cls-5,.cls-7{stroke-width:1.85px;}.cls-6,.cls-7{stroke:#4d4d4d;}.cls-6{stroke-width:1.65px;}.cls-8{fill:#4e4d4e;}.cls-9{stroke-linejoin:round;}.cls-10,.cls-9{stroke-width:1.92px;}</style></defs><title>Asset 52glyphs</title><g id="Layer_2" data-name="Layer 2"><g id="Layer_1-2" data-name="Layer 1"><g id="Notifications_Glyph_v6" data-name="Notifications Glyph v6"><g id="Mail_Glyph_v3" data-name="Mail Glyph v3"><path class="cls-1" d="M214.33,49.84s-9.27,8.71-10.33,9.54a2.65,2.65,0,0,1-3.52,0L190,49.72"/><path class="cls-2" d="M190,50.9s.05,13.92.05,15.94S191.6,69,191.6,69h21.27c1.52,0,1.41-2.14,1.41-2.14s0-15.83,0-15.82"/><path class="cls-1" d="M201.31,57.44"/><g class="cls-3"><path class="cls-1" d="M190.05,67.57"/></g><path class="cls-1" d="M191.93,68.85"/><path class="cls-1" d="M190.45,50.61V47.14a.57.57,0,0,1,.62-.49h21.65a.57.57,0,0,1,.62.49v3.51"/></g><line class="cls-1" x1="195.29" y1="51.83" x2="208.4" y2="51.83"/><line class="cls-1" x1="195.29" y1="49.35" x2="199.75" y2="49.35"/></g><g id="Like_Glyph_v1.2" data-name="Like Glyph v1.2"><path class="cls-1" d="M60.16,26.24a.83.83,0,0,1-.32-.08C53.52,23.31,46.78,17.57,47.6,9.9a8.18,8.18,0,0,1,1.12-3.48,5.49,5.49,0,0,1,2.92-2.34c3-1,5.91-.42,8.55,2.65,2.64-3.06,5.55-3.61,8.55-2.65a5.49,5.49,0,0,1,2.92,2.34A8.18,8.18,0,0,1,72.77,9.9c.83,7.67-5.94,13.36-12.23,16.26A.83.83,0,0,1,60.16,26.24Z"/></g><g id="Mail_Glyph_v3-2" data-name="Mail Glyph v3"><path class="cls-1" d="M166.09,10.28s-7.85,5.93-8.74,6.49a2.65,2.65,0,0,1-3,0l-8.67-6.49"/><path class="cls-1" d="M154.67,16.07"/><g class="cls-3"><path class="cls-1" d="M145.75,23.22"/></g><path class="cls-1" d="M147.24,24.11"/></g><g id="Notifications_Glyph_v3" data-name="Notifications Glyph v3"><circle class="cls-1" cx="155.9" cy="14.94" r="11.83"/></g><path class="cls-1" d="M156.33,3.31"/><g id="Notifications_Glyph_v3-2" data-name="Notifications Glyph v3"><circle class="cls-1" cx="202.18" cy="14.94" r="12.05"/></g><path class="cls-1" d="M203,2.86"/><line class="cls-1" x1="195.67" y1="11.83" x2="200.72" y2="11.83"/><line class="cls-1" x1="195.67" y1="16.56" x2="208.69" y2="16.56"/><g id="Settings_v1" data-name="Settings v1"><circle class="cls-1" cx="248.42" cy="15.06" r="4.55"/><polyline class="cls-1" points="245.55 7.34 245.55 2.98 251.28 2.98 251.28 7.32"/><polyline class="cls-1" points="251.28 22.56 251.28 26.9 245.55 26.9 245.55 22.61"/><polyline class="cls-1" points="240.63 17.92 236.38 17.92 236.38 12.2 240.65 12.2"/><polyline class="cls-1" points="255.84 12.2 260.3 12.2 260.3 17.92 255.92 17.92"/><polyline class="cls-1" points="251.67 7.64 254.74 4.57 258.79 8.62 255.69 11.72"/><polyline class="cls-1" points="245 22.49 242.01 25.47 237.97 21.42 241.04 18.35"/><polyline class="cls-1" points="240.92 11.57 237.97 8.62 242.01 4.57 244.98 7.54"/><polyline class="cls-1" points="255.72 18.19 258.91 21.38 254.86 25.43 251.59 22.16"/></g><g id="Mail_Glyph_v3-3" data-name="Mail Glyph v3"><path class="cls-1" d="M353.24,6.37s-9.12,8.76-10.15,9.59a2.57,2.57,0,0,1-3.46,0L329.56,6.37"/><path class="cls-1" d="M340,14.93"/><g class="cls-3"><path class="cls-1" d="M329.62,25.49"/></g><path class="cls-1" d="M331.35,26.82"/><path class="cls-1" d="M329.36,6.25S329.41,4,330.9,4h20.91s1.39-.13,1.39,2V23.26s.11,2.29-1.39,2.29H330.9s-1.49-.13-1.49-2.29S329.36,6.25,329.36,6.25Z"/></g><g id="Notifications_Glyph_v4" data-name="Notifications Glyph v4"><path class="cls-1" d="M67.26,48.59C66,47.35,63.79,46.91,62,47c-4.21.22-8.44,3.16-11,6.5A9.58,9.58,0,0,0,49.15,62a9.18,9.18,0,0,0,5.37,5.45,20.42,20.42,0,0,0,7.6,1.22c2.47,0,10.92-.38,9.22-4.95-.59-1.58-2.74-1.48-4.22-2.18-4.88-2.29.07-6.73.86-9.5A3.28,3.28,0,0,0,67.26,48.59Z"/><ellipse class="cls-1" cx="56.54" cy="61.13" rx="2.45" ry="2.51"/></g><g id="Notifications_Glyph_v3-3" data-name="Notifications Glyph v3"><g id="_Group_" data-name="&lt;Group&gt;"><path class="cls-1" d="M390.75,22.61c-.66,1.67-2.55,3.65-3.9,3.65s-3.41-2-4-3.69"/><path class="cls-1" d="M386.79,3.64a11.08,11.08,0,0,0-3.56.38,5.64,5.64,0,0,0-3,1.94,7.31,7.31,0,0,0-1.16,4.63c.05,1.63.36,3.24.37,4.87,0,.76-1.75,3-2.26,3.47a1.9,1.9,0,0,0,0,2.5,3,3,0,0,0,1.7.78,31.83,31.83,0,0,0,4,.37c2.43.11,5.41.14,7.91,0a20.46,20.46,0,0,0,4.57-.54,2.7,2.7,0,0,0,1.29-.78,1.87,1.87,0,0,0-.31-2.56c-.34-.25-2.21-2-2.16-3.09.07-1.65.44-3.83.43-5.49a6.93,6.93,0,0,0-1.48-4.6,5.69,5.69,0,0,0-2.92-1.63,15,15,0,0,0-3.34-.32"/></g></g><g id="Notifications_Glyph_v2" data-name="Notifications Glyph v2"><path id="Front" class="cls-4" d="M4.49,65.2c2.45-.1,4.94,1.52,7.3,2.16,4.79,1.3,11,.39,14.07-3.92,2.24-3.19,1.92-7.81-.09-11a10.29,10.29,0,0,0-8.45-4.68,11.67,11.67,0,0,0-6.89,1.77A12,12,0,0,0,6.51,55c-.71,1.7-1.16,3.52-1.79,5.25a15.69,15.69,0,0,1-3,4.67Z"/><line class="cls-4" x1="10.66" y1="56.39" x2="22.33" y2="56.39"/><line class="cls-4" x1="10.66" y1="60.67" x2="22.33" y2="60.67"/></g><g id="Notifications_Glyph_v1" data-name="Notifications Glyph v1"><circle class="cls-1" cx="155.9" cy="57.82" r="11.17"/><path class="cls-1" d="M144.59,58.18a66.86,66.86,0,0,0,23.23.09"/><path class="cls-1" d="M152.55,47.92a50.73,50.73,0,0,0-.09,20.42"/><path class="cls-1" d="M158.86,68.35a53.44,53.44,0,0,0,.09-20.26"/><path class="cls-1" d="M146.47,52.52a47.9,47.9,0,0,0,18.77.08"/><path class="cls-1" d="M146.06,63.92a43.89,43.89,0,0,0,19.51.1"/></g><g id="Share_Glyph_v4.1" data-name="Share Glyph v4.1"><circle class="cls-1" cx="102.78" cy="54.53" r="7.84"/><circle class="cls-1" cx="110.15" cy="61.1" r="7.84"/></g><g id="Share_Glyph_v1" data-name="Share Glyph v1"><circle class="cls-1" cx="290.97" cy="8.88" r="5.66"/><path class="cls-1" d="M288,12.81"/><circle class="cls-1" cx="301.33" cy="13.99" r="4.42"/><path class="cls-1" d="M303.3,17.93"/><path class="cls-1" d="M299.39,25.93h7.7a12.39,12.39,0,0,0-.23-4.79A5.75,5.75,0,0,0,304,17.5"/><path class="cls-1" d="M293.79,13.09a9.31,9.31,0,0,1,4.58,5.83,19.74,19.74,0,0,1,.38,7.74H282.93a19.74,19.74,0,0,1,.38-7.74A9.32,9.32,0,0,1,288,13"/><path class="cls-1" d="M299.36,18"/></g><g id="Show_v2" data-name="Show v2"><path class="cls-5" d="M307.29,58.06c-13,18-24.69,0-24.69,0v-.49s11.7-18,24.73,0Z"/><circle class="cls-1" cx="294.74" cy="57.82" r="4.5"/></g><g id="Hide_v2" data-name="Hide v2"><path class="cls-1" d="M344.77,55.27a4.5,4.5,0,0,1-5.92,5.92"/><path class="cls-1" d="M347.22,51.53a22.83,22.83,0,0,1,6.27,6.19l0,.49c-7.25,10-14.14,8.88-18.81,5.9"/><path class="cls-5" d="M332.24,62.07A18.15,18.15,0,0,1,329,58.21v-.49s6.77-10.45,15.79-7.45"/><path class="cls-1" d="M338.34,62.24"/><line class="cls-1" x1="349.38" y1="49.02" x2="331.78" y2="66.62"/></g><g id="Mail_Glyph_v3-4" data-name="Mail Glyph v3"><path class="cls-5" d="M190.57,103.24s8.94-6.76,10-7.39a3,3,0,0,1,3.39,0l9.88,7.39"/><path class="cls-5" d="M203.58,96.64"/></g><g id="Close_v1" data-name="Close v1"><path class="cls-5" d="M144.29,95.14s8.94,6.76,10,7.39a3,3,0,0,0,3.39,0l9.88-7.39"/><path class="cls-5" d="M157.3,101.74"/></g><g id="Hide_v1" data-name="Hide v1"><path class="cls-5" d="M237.09,110.17s8.78-8.61,9.77-9.43a2.43,2.43,0,0,1,3.33,0l9.7,9.43"/><path class="cls-5" d="M249.86,101.76"/></g><g id="Show_v1" data-name="Show v1"><path class="cls-5" d="M259.59,88.2s-8.78,8.61-9.77,9.43a2.43,2.43,0,0,1-3.33,0l-9.7-9.43"/><path class="cls-5" d="M246.82,96.62"/></g><g id="Report_Content_Glyph_v1" data-name="Report Content Glyph v1"><path class="cls-1" d="M238.62,70l0-21.62-.38-1.11s6.73-2.18,11.1,1.17v2.95s5.79,2.34,9.19.2l0,10.83,0,.76c-3.41,1.59-9-.2-9-.2v-2.3c-4.37-2.62-11.14-.91-11.14-.91"/></g><g id="Notifications_Glyph_v9" data-name="Notifications Glyph v9"><g id="Notifications_Glyph_v3-4" data-name="Notifications Glyph v3"><circle class="cls-1" cx="106.47" cy="99.19" r="11.54"/></g><circle class="cls-1" cx="106.47" cy="94.05" r="2.29"/><rect class="cls-1" x="104.09" y="98.91" width="4.75" height="8.26" rx="0.94" ry="0.94"/></g><g id="Notifications_Glyph_v9-2" data-name="Notifications Glyph v9"><g id="Notifications_Glyph_v3-5" data-name="Notifications Glyph v3"><circle class="cls-1" cx="386.84" cy="57.82" r="11.52"/></g></g><circle class="cls-6" cx="386.6" cy="63.45" r="1.63"/><path class="cls-7" d="M387.65,59.76c4.18-9.33-.31-8.5-.31-8.5h-1s-4.49-.83-.31,8.5Z"/><path class="cls-8" d="M20.25,3.72,25.14,8l-5,4,0-2.29-6.41-.06-1.86,0a5.51,5.51,0,0,0-3.21.67c-.51.4-.67,1.48-.7,2.71L5.65,14.76A6.8,6.8,0,0,1,4.94,11,6.27,6.27,0,0,1,7.21,7.11a5.21,5.21,0,0,1,2.68-1l10.33.09,0-2.48M18.6,0l0,3.7v.79L9.91,4.41H9.79l-.12,0A6.87,6.87,0,0,0,6.16,5.79a7.94,7.94,0,0,0-2.9,4.94,8.3,8.3,0,0,0,.85,4.74L5,17.36l1.67-1.24L9,14.34l.66-.5,0-.83a5.56,5.56,0,0,1,.16-1.48,5.44,5.44,0,0,1,2.05-.24h1.85l4.71,0V12l0,3.55,2.77-2.21,5-4L27.77,8.1,26.26,6.77,21.37,2.45,18.6,0Z"/><path class="cls-8" d="M22.64,15.12a6.8,6.8,0,0,1,.72,3.77,6.27,6.27,0,0,1-2.28,3.88,5.21,5.21,0,0,1-2.68,1L8.06,23.69l0,2.48L3.15,21.85l5-4,0,2.29,6.41.06,1.86,0a5.51,5.51,0,0,0,3.21-.67c.51-.4.67-1.48.7-2.71l2.38-1.77m.66-2.6-1.67,1.24-2.38,1.77-.66.5,0,.83a5.56,5.56,0,0,1-.16,1.48,5.44,5.44,0,0,1-2.05.24H14.51l-4.71,0v-.61l0-3.55L7.06,16.57l-5,4L.52,21.78,2,23.11l4.89,4.32,2.77,2.45,0-3.7v-.79l8.65.08h.12l.12,0a6.87,6.87,0,0,0,3.51-1.36A7.94,7.94,0,0,0,25,19.15a8.3,8.3,0,0,0-.85-4.74l-.87-1.89Z"/><path class="cls-9" d="M3,110.52S5.85,98.25,6.56,97.4s6.64-3.29,6.64-3.29l6.15,6.15s-2.38,5.92-3.27,6.62S3,110.49,3,110.49Z"/><rect class="cls-9" x="16.29" y="90.12" width="8.49" height="5.08" transform="translate(71.53 12.62) rotate(45)"/><g id="Notifications_Glyph_v9-3" data-name="Notifications Glyph v9"><g id="Notifications_Glyph_v3-6" data-name="Notifications Glyph v3"><circle class="cls-10" cx="58.01" cy="96.32" r="10.03"/></g><rect class="cls-10" x="66.67" y="104.84" width="4.13" height="7.18" rx="0.82" ry="0.82" transform="translate(194.01 136.51) rotate(135)"/></g><line class="cls-10" x1="52" y1="94.13" x2="56.66" y2="94.13"/><line class="cls-10" x1="52" y1="98.5" x2="64.02" y2="98.5"/><circle class="cls-10" cx="377.17" cy="99.19" r="3"/><circle class="cls-10" cx="387.22" cy="99.19" r="3"/><circle class="cls-10" cx="396.58" cy="99.19" r="2.93"/><g id="Messages_Glyph_v1" data-name="Messages Glyph v1"><path class="cls-1" d="M101,4.34c4-.7,10,.38,11.94,4.51a7.15,7.15,0,0,1,.41,4.49,8.93,8.93,0,0,1-3.57,5.28,9.14,9.14,0,0,1-3,1.42c-1.86.49-3.52.05-5.28,1l-5.72,3,.9-4.54a1.57,1.57,0,0,0,0-.63,1.5,1.5,0,0,0-.46-.7,17.88,17.88,0,0,1-2.09-2.22C92.38,13.4,93,9.72,95,7.44A10.29,10.29,0,0,1,101,4.34Z"/><path class="cls-1" d="M115.09,11.59a6.38,6.38,0,0,1,4.64,5.07c.4,2.11-.34,5-2.62,5.68l.74,2.7-3.71-1.59a9.5,9.5,0,0,0-1.93,0,8.61,8.61,0,0,1-4.07-1.51"/></g><g id="Edit_Poster_Glyph_v5" data-name="Edit Poster Glyph v5"><g id="Close_v1-2" data-name="Close v1"><path class="cls-1" d="M339.08,97"/></g><path class="cls-1" d="M339.21,104.41l-2.26,2.26-5,2-.15-.15s1.88-5,1.91-5l2.21-2.21"/><path class="cls-1" d="M343.37,93.87l3.39-3.39c.8-.8,1.88-1,2.41-.48l1.25,1.25c.53.53.32,1.62-.48,2.41L346.57,97"/><path class="cls-1" d="M339.08,97"/><g id="Close_v1-3" data-name="Close v1"><path class="cls-1" d="M339.8,101"/></g><path class="cls-1" d="M340.3,105.29"/><g id="Close_v1-4" data-name="Close v1"><path class="cls-1" d="M339.08,97"/></g><path class="cls-1" d="M339.08,97"/><path class="cls-1" d="M343.25,104.3a4.34,4.34,0,0,0,.85,4.85,5,5,0,0,0,4.31,1.43l.16-1.09-1.81-1.81s.18-1.85.25-2.15a.82.82,0,0,1,.21-.4h0a.82.82,0,0,1,.4-.21c.3-.07,2.15-.25,2.15-.25l1.81,1.81,1.09-.16a5,5,0,0,0-1.43-4.31,4.34,4.34,0,0,0-4.85-.85l-7.07-7.07a4.34,4.34,0,0,0-.85-4.85,5,5,0,0,0-4.31-1.43L334,88.89l1.81,1.81s-.18,1.85-.25,2.15a.82.82,0,0,1-.21.4h0a.82.82,0,0,1-.4.21c-.3.07-2.15.25-2.15.25L331,91.9l-1.09.16a5,5,0,0,0,1.43,4.31,4.34,4.34,0,0,0,4.85.85Z"/></g><g id="Edit_Poster_Glyph_v1" data-name="Edit Poster Glyph v1"><path class="cls-1" d="M292.45,100.73"/><g class="cls-3"><path class="cls-1" d="M284.69,111.75"/></g><path class="cls-1" d="M285.33,111.8"/><path class="cls-1" d="M303.06,99.4v10.13s.09,1.94-1.18,1.94H284.16s-1.27-.11-1.27-1.94,0-14.42,0-14.42,0-1.88,1.31-1.88h8.29"/><path id="Notifications_Glyph_v5" data-name="Notifications Glyph v5" class="cls-1" d="M305.46,87c-16.53-1.18-14.84,18.57-14.84,18.57a14.13,14.13,0,0,1,4.49-4.44,26.26,26.26,0,0,0,3.54-1.87c.48-.31-1-3-.49-3.4s3,1.49,3.5,1-2.19-4.54-1.71-5.06,4.46,2,4.86,1.57C307.28,90.46,308.09,87.14,305.46,87Z"/></g></g></g></svg>