<svg xmlns="http://www.w3.org/2000/svg" viewBox="0 0 217.02 23.91"><defs><style>.cls-1,.cls-10,.cls-11,.cls-13,.cls-14,.cls-2,.cls-5,.cls-7,.cls-9{fill:none;}.cls-1,.cls-10,.cls-11,.cls-2,.cls-3,.cls-4,.cls-5,.cls-7,.cls-8,.cls-9{stroke:#4d4d4d;}.cls-1,.cls-10,.cls-3,.cls-4,.cls-5,.cls-7,.cls-8,.cls-9{stroke-linejoin:round;}.cls-1,.cls-2{stroke-width:2.23px;}.cls-2{stroke-linecap:square;}.cls-11,.cls-13,.cls-14,.cls-2,.cls-6{stroke-miterlimit:10;}.cls-15,.cls-3,.cls-4,.cls-8{fill:#4d4d4e;}.cls-3,.cls-6{stroke-width:1.68px;}.cls-4{stroke-width:1.62px;}.cls-5{stroke-width:1.96px;}.cls-6{fill:#4d4d4d;stroke:#4d4d4e;}.cls-7,.cls-8{stroke-width:2.34px;}.cls-9{stroke-linecap:round;}.cls-10,.cls-9{stroke-width:2.79px;}.cls-11,.cls-13,.cls-14{stroke-width:1.12px;}.cls-12{opacity:0.5;}.cls-13{stroke:#9e9e9e;}.cls-14{stroke:#010101;}</style></defs><title>shareconventions</title><g id="Layer_2" data-name="Layer 2"><g id="Layer_1-2" data-name="Layer 1"><g id="Share_Glyph_v6.2" data-name="Share Glyph v6.2"><circle class="cls-1" cx="83.53" cy="4.46" r="3.16"/><circle class="cls-1" cx="80.53" cy="19.6" r="3.16"/><path class="cls-2" d="M77,13.74a9.12,9.12,0,0,1,.72-5.47"/><path class="cls-2" d="M90.39,3.85a9.12,9.12,0,0,1,4.38,3.36"/><circle class="cls-1" cx="95.31" cy="13.99" r="3.16" transform="translate(6.22 50.62) rotate(-30.7)"/><path class="cls-2" d="M92.32,19.91A9.25,9.25,0,0,1,87.11,22"/></g><circle class="cls-3" cx="18.93" cy="4.45" r="3.47" transform="translate(2.4 14.69) rotate(-45)"/><circle class="cls-4" cx="4.27" cy="12.01" r="3.47" transform="translate(-7.24 6.54) rotate(-45)"/><line class="cls-5" x1="7.45" y1="10.19" x2="15.61" y2="6.11"/><circle class="cls-6" cx="19.06" cy="19.61" r="3.47" transform="translate(-8.28 19.22) rotate(-45)"/><line class="cls-5" x1="7.26" y1="13.81" x2="15.89" y2="17.8"/><path class="cls-7" d="M194.19,9.44"/><circle class="cls-8" cx="201.95" cy="11.91" r="3.49"/><path class="cls-9" d="M209,4.67a10.06,10.06,0,0,0-16.85,5.06h-2.42"/><line class="cls-10" x1="186.34" y1="9.71" x2="192.48" y2="9.71"/><path class="cls-9" d="M194.58,19.39a10.06,10.06,0,0,0,16.85-5.06h2.66"/><line class="cls-10" x1="217.02" y1="14.35" x2="211.1" y2="14.35"/><g id="Messages_Glyph_v4" data-name="Messages Glyph v4"><line class="cls-11" x1="49.68" y1="17.02" x2="49.68" y2="0.87"/><polyline class="cls-11" points="54.24 5.35 49.68 0.79 45.12 5.35"/><path class="cls-11" d="M48.72,16.49"/><g class="cls-12"><path class="cls-13" d="M42.12,23.21"/></g><path class="cls-14" d="M43.23,24.06"/><path class="cls-11" d="M53.59,9.55h2.8s.88-.09.88,1.28v11s.07,1.46-.88,1.46H43.07s-1-.09-1-1.46,0-10.83,0-10.83,0-1.41,1-1.41h2.69"/></g><g id="Edit_Poster_Glyph_v2" data-name="Edit Poster Glyph v2"><path class="cls-10" d="M135.15,12a1.46,1.46,0,0,1,.35,1.3v7.52s.11,1.68-1.37,1.68H113.54a1.6,1.6,0,0,1-1.47-1.68c0-1.58-.05-12.49-.05-12.49s.05-1.63,1.52-1.63h5.63a2,2,0,0,1,1.27.39"/></g><path class="cls-15" d="M123.05,19.19s-2.06-4.92.4-7.38,5.85-3.52,10.42-3.52v3.16l6.86-6L133.88.2V3.37s-8,.35-12.27,4.22-.42,10.2-.42,10.2a6.88,6.88,0,0,0,1.37,1.76Z"/><path class="cls-15" d="M156.08,22s-2.2-5.25.43-7.88,6.24-3.75,11.12-3.75v3.38l7.32-6.38-7.32-5.63V5.09s-8.59.38-13.09,4.5-.45,10.88-.45,10.88a7.35,7.35,0,0,0,1.46,1.88Z"/></g></g></svg>